# xmcd CD database file
#
# Track frame offsets:
#	150
#	32530
#	74400
#	91898
#	104451
#	125706
#	138799
#	174773
#	192524
#	215310
#	244814
#	263117
#
# Disc length: 3793 seconds
#
# Revision: 0
# Processed by: cddbd v1.5.2PL0 Copyright (c) Steve Scherf et al.
# Submitted via: CDex 1.70beta2
#
DISCID=a60ecf0c
DTITLE=Camilleri, Andrea - Die Spur des Fuchses
DYEAR=2010
DGENRE=Hoerbuch
TTITLE0=35 Die Spur des Fuchses
TTITLE1=36 Die Spur des Fuchses
TTITLE2=37 Die Spur des Fuchses
TTITLE3=38 Die Spur des Fuchses
TTITLE4=39 Die Spur des Fuchses
TTITLE5=40 Die Spur des Fuchses
TTITLE6=41 Die Spur des Fuchses
TTITLE7=42 Die Spur des Fuchses
TTITLE8=43 Die Spur des Fuchses
TTITLE9=44 Die Spur des Fuchses
TTITLE10=45 Die Spur des Fuchses
TTITLE11=46 Die Spur des Fuchses
EXTD=YEAR: 2010
EXTT0=
EXTT1=
EXTT2=
EXTT3=
EXTT4=
EXTT5=
EXTT6=
EXTT7=
EXTT8=
EXTT9=
EXTT10=
EXTT11=
PLAYORDER=
